PathFileType	3	(X/Y/Z)	running_2__fused_aligned.trc
DataRate	CameraRate	NumFrames	NumMarkers	Units	OrigDataRate	OrigDataStartFrame	OrigNumFrames
100.0	100.0	10	19	mm	100.0	5033	6395
Frame#	Time	pelvis			neck			head			hip_left			hip_right			knee_left			knee_right			ankle_left			ankle_right			heel_left			heel_right			toe_left			toe_right			shoulder_left			shoulder_right			elbow_left			elbow_right			wrist_left			wrist_right			
		X1	Y1	Z1	X2	Y2	Z2	X3	Y3	Z3	X4	Y4	Z4	X5	Y5	Z5	X6	Y6	Z6	X7	Y7	Z7	X8	Y8	Z8	X9	Y9	Z9	X10	Y10	Z10	X11	Y11	Z11	X12	Y12	Z12	X13	Y13	Z13	X14	Y14	Z14	X15	Y15	Z15	X16	Y16	Z16	X17	Y17	Z17	X18	Y18	Z18	X19	Y19	Z19	
5033	50.32000	6.038882	946.507119	227.208764	-24.066221	1481.405181	395.552324	-24.338506	1560.493462	546.940334	81.231277	947.296110	221.296727	-69.153560	945.718133	233.120790	111.162475	515.538059	222.972473	-92.314714	536.991138	389.543574	87.555742	238.678113	-70.279782	-119.898566	150.350925	288.730645	77.610048	229.047330	-124.027998	-125.226520	104.508396	250.567153	96.614801	68.202104	-1.831704	-104.508687	85.731862	468.598906	145.525004	1466.362071	353.723279	-188.374115	1431.426555	343.589050	254.039717	1229.264487	251.195331	-276.839670	1202.718268	209.085668	160.011189	1103.608911	422.881200	-211.446441	1050.228497	386.526505
5034	50.33000	3.559464	948.259508	228.118647	-26.011979	1483.049110	396.336221	-25.606796	1561.702157	547.838938	78.711769	948.965297	222.180359	-71.592936	947.553729	234.056921	109.324308	517.211484	225.229657	-95.523359	538.237533	385.343256	86.254948	240.817387	-65.385533	-122.749068	147.882714	286.588250	76.389975	231.287576	-118.856040	-128.059629	101.211289	248.320830	95.112996	70.516033	2.390076	-107.280365	83.880169	469.339237	142.876560	1468.232189	353.436382	-190.252223	1433.279029	345.488913	250.026290	1231.634970	250.013567	-278.550632	1204.011305	212.911296	157.026715	1106.254703	421.871599	-210.820930	1053.064633	389.314876
5035	50.34000	1.080045	950.011897	229.028530	-27.957737	1484.693039	397.120118	-26.875086	1562.910852	548.737542	76.192261	950.634484	223.063991	-74.032313	949.389325	234.993053	107.486140	518.884909	227.486841	-98.732004	539.483928	381.142938	84.954154	242.956662	-60.491284	-125.599569	145.414504	284.445854	75.169902	233.527822	-113.684082	-130.892738	97.914182	246.074506	93.611192	72.829962	6.611856	-110.052043	82.028476	470.079568	140.228116	1470.102308	353.149485	-192.130331	1435.131503	347.388777	246.012862	1234.005453	248.831803	-280.261593	1205.304342	216.736924	154.042240	1108.900495	420.861998	-210.195419	1055.900768	392.103248
5036	50.35000	-1.399374	951.764286	229.938414	-29.903495	1486.336968	397.904015	-28.143376	1564.119546	549.636146	73.672753	952.303671	223.947623	-76.471690	951.224921	235.929184	105.647973	520.558333	229.744026	-101.940650	540.730323	376.942620	83.653359	245.095937	-55.597035	-128.450071	142.946293	282.303458	73.949828	235.768067	-108.512124	-133.725847	94.617075	243.828183	92.109387	75.143891	10.833635	-112.823722	80.176784	470.819899	137.579671	1471.972426	352.862588	-194.008439	1436.983976	349.288641	241.999434	1236.375937	247.650040	-281.972555	1206.597379	220.562552	151.057766	1111.546287	419.852397	-209.569908	1058.736903	394.891619
5037	50.36000	-3.878792	953.516675	230.848297	-31.849253	1487.980898	398.687912	-29.411665	1565.328241	550.534751	71.153245	953.972858	224.831255	-78.911066	953.060517	236.865315	103.809806	522.231758	232.001210	-105.149295	541.976717	372.742302	82.352565	247.235211	-50.702786	-131.300573	140.478083	280.161062	72.729755	238.008313	-103.340166	-136.558956	91.319968	241.581859	90.607582	77.457820	15.055415	-115.595400	78.325091	471.560231	134.931227	1473.842544	352.575690	-195.886547	1438.836450	351.188504	237.986006	1238.746420	246.468276	-283.683517	1207.890416	224.388180	148.073291	1114.192079	418.842796	-208.944397	1061.573038	397.679990
5038	50.37000	-4.846019	953.576806	231.913993	-32.177383	1487.977632	399.381457	-29.185396	1565.471790	551.206692	70.156158	954.062128	225.946635	-79.848427	953.091500	237.881345	103.622532	523.488954	239.609128	-107.409400	540.623330	366.746541	83.747072	246.696888	-38.298789	-133.725312	141.893994	269.505491	74.501606	236.889745	-90.465204	-138.753406	93.745352	230.649932	90.849323	79.120877	28.831843	-118.735794	77.543817	457.433108	133.670361	1473.958155	351.186561	-196.251735	1438.556651	353.619014	234.552401	1240.140728	241.631948	-283.464717	1206.530717	229.068566	150.538945	1114.120648	414.285027	-206.052924	1063.355964	402.367826
5039	50.38000	-5.813247	953.636936	232.979689	-32.505513	1487.974366	400.075002	-28.959127	1565.615338	551.878634	69.159071	954.151397	227.062015	-80.785787	953.122483	238.897376	103.435257	524.746150	247.217046	-109.669505	539.269944	360.750781	85.141580	246.158565	-25.894792	-136.150051	143.309905	258.849919	76.273458	235.771178	-77.590242	-140.947857	96.170735	219.718005	91.091065	80.783934	42.608271	-121.876188	76.762543	443.305985	132.409495	1474.073767	349.797431	-196.616924	1438.276851	356.049524	231.118796	1241.535037	236.795619	-283.245918	1205.171018	233.748952	153.004598	1114.049217	409.727258	-203.161450	1065.138889	407.055662
5040	50.39000	-6.780474	953.697067	234.045385	-32.833643	1487.971100	400.768547	-28.732858	1565.758887	552.550576	68.161983	954.240667	228.177394	-81.723148	953.153466	239.913406	103.247983	526.003345	254.824964	-111.929610	537.916557	354.755020	86.536087	245.620242	-13.490794	-138.574789	144.725816	248.194348	78.045309	234.652610	-64.715279	-143.142307	98.596118	208.786078	91.332807	82.446991	56.384699	-125.016582	75.981269	429.178862	131.148629	1474.189379	348.408302	-196.982112	1437.997052	358.480033	227.685192	1242.929346	231.959291	-283.027118	1203.811319	238.429339	155.470251	1113.977786	405.169488	-200.269977	1066.921815	411.743498
5041	50.40000	-7.747702	953.757197	235.111081	-33.161773	1487.967834	401.462092	-28.506589	1565.902436	553.222517	67.164896	954.329936	229.292774	-82.660508	953.184449	240.929436	103.060709	527.260541	262.432882	-114.189715	536.563170	348.759259	87.930594	245.081919	-1.086797	-140.999528	146.141726	237.538776	79.817161	233.534043	-51.840317	-145.336757	101.021501	197.854151	91.574548	84.110048	70.161127	-128.156977	75.199995	415.051739	129.887762	1474.304990	347.019172	-197.347300	1437.717252	360.910543	224.251587	1244.323654	227.122963	-282.808319	1202.451620	243.109725	157.935905	1113.906356	400.611719	-197.378503	1068.704741	416.431334
5042	50.41000	-8.714929	953.817327	236.176777	-33.489903	1487.964568	402.155637	-28.280320	1566.045984	553.894459	66.167809	954.419205	230.408154	-83.597869	953.215432	241.945467	102.873435	528.517737	270.040800	-116.449820	535.209783	342.763498	89.325102	244.543596	11.317200	-143.424267	147.557637	226.883205	81.589012	232.415475	-38.965355	-147.531207	103.446885	186.922223	91.816290	85.773106	83.937555	-131.297371	74.418721	400.924616	128.626896	1474.420602	345.630042	-197.712489	1437.437453	363.341052	220.817982	1245.717963	222.286634	-282.589519	1201.091921	247.790111	160.401558	1113.834925	396.053950	-194.487030	1070.487666	421.119170
